<?xml version="1.0" encoding="UTF-8"?>
<svg width="16px" height="16px" viewBox="0 0 16 16" version="1.1" xmlns="http://www.w3.org/2000/svg" xmlns:xlink="http://www.w3.org/1999/xlink">
    <!-- Generator: Sketch 54.1 (76490) - https://sketchapp.com -->
    <title>添加审核</title>
    <desc>Created with Sketch.</desc>
    <g id="添加审核" stroke="none" stroke-width="1" fill="none" fill-rule="evenodd">
        <g id="审核" transform="translate(0.800000, 0.000000)" fill="#999999" fill-rule="nonzero">
            <path d="M5.34193765,14.8451397 L2.52765672,14.8451397 C2.13711029,14.8451397 1.76835401,14.677095 1.50519611,14.3964246 C1.24203822,14.1157542 1.08280255,13.7063687 1.08280255,13.3041341 L1.08280255,2.68692737 C1.08280255,2.27039106 1.24036205,1.87709497 1.50351995,1.59642458 C1.78176333,1.2996648 2.14381495,1.1477095 2.52598056,1.1477095 L12.4807241,1.1477095 C12.8712705,1.1477095 13.2400268,1.31575419 13.5031847,1.59642458 C13.7814281,1.89318436 13.9239021,2.27932961 13.9239021,2.68692737 L13.9088166,6.49832402 C13.9088166,6.81117318 14.1501844,7.06860335 14.4435132,7.06860335 C14.7368421,7.06860335 14.9782099,6.82011173 14.9782099,6.50726257 L15,2.69586592 C15,1.98078212 14.7284613,1.2996648 14.2557828,0.793743017 C13.7814281,0.287821229 13.1428093,0 12.4723433,0 L2.52765672,0 C1.85719075,0 1.21857191,0.289608939 0.744217231,0.793743017 C0.269862554,1.2996648 0,1.97363128 0,2.69586592 L0,13.3041341 C0,14.0192179 0.271538719,14.7003352 0.744217231,15.206257 C1.21857191,15.7121788 1.85719075,16 2.52765672,16 L5.34864231,16 C5.64197117,16 5.88333892,15.7425698 5.88333892,15.4297207 C5.8749581,15.1097207 5.64197117,14.8451397 5.34193765,14.8451397 L5.34193765,14.8451397 Z M11.4956978,4.97519553 C11.808582,4.97519553 12.0660409,4.71776536 12.0660409,4.4049162 C12.0660409,4.09206704 11.808582,3.83463687 11.4956978,3.83463687 L2.34517823,3.83463687 C2.03229411,3.83463687 1.77483518,4.09206704 1.77483518,4.4049162 C1.77483518,4.71776536 2.03229411,4.97519553 2.34517823,4.97519553 L11.4956978,4.97519553 Z M5.78153984,8.39329609 C5.98178567,8.39329609 6.17487987,8.28067039 6.27857861,8.10368715 C6.38227735,7.92670391 6.38227735,7.71039106 6.27857861,7.53340782 C6.17487987,7.35642458 5.98178567,7.24379888 5.78153984,7.24379888 L2.34517823,7.24379888 C2.03229411,7.24379888 1.77483518,7.50122905 1.77483518,7.81407821 C1.77483518,8.12692737 2.03229411,8.38435754 2.34517823,8.38435754 C2.34517823,8.39329609 5.78153984,8.39329609 5.78153984,8.39329609 Z M2.35411778,10.6726257 C2.04123366,10.6726257 1.78377472,10.9300559 1.78377472,11.242905 C1.78377472,11.5557542 2.04123366,11.8131844 2.35411778,11.8131844 L4.63370209,11.8131844 C4.83394793,11.8131844 5.02704213,11.7005587 5.13074086,11.5235754 C5.2344396,11.3465922 5.2344396,11.1302793 5.13074086,10.9532961 C5.02704213,10.7763128 4.83394793,10.6636872 4.63370209,10.6636872 L2.35411778,10.6636872 L2.35411778,10.6726257 L2.35411778,10.6726257 Z" id="形状"></path>
        </g>
        <path d="M11.5,11.5 L11.5,8.5 L11.5,8.5 C11.4999999,8.22385781 11.7238578,8 12,8 C12.2761422,7.99999996 12.5,8.22385781 12.5,8.5 C12.5,8.5 12.5,8.5 12.5,8.5 L12.5,11.5 L15.5,11.5 L15.5,11.5 C15.7761422,11.5 16,11.7238578 16,12 C16,12.2761422 15.7761422,12.5 15.5,12.5 L12.5,12.5 L12.5,15.5 L12.5,15.5 C12.5,15.7761422 12.2761422,16 12,16 C11.7238578,16 11.5,15.7761422 11.5,15.5 L11.5,12.5 L8.5,12.5 L8.5,12.5 C8.22385781,12.5 8,12.2761422 8,12 C8.00000001,11.7238578 8.22385781,11.5 8.5,11.5 L11.5,11.5 L11.5,11.5 Z" id="路径" fill="#999999" fill-rule="nonzero"></path>
    </g>
</svg>