<?xml version="1.0" encoding="UTF-8"?>
<svg width="16px" height="16px" viewBox="0 0 16 16" version="1.1" xmlns="http://www.w3.org/2000/svg" xmlns:xlink="http://www.w3.org/1999/xlink">
    <!-- Generator: Sketch 54.1 (76490) - https://sketchapp.com -->
    <title>添加审核（高亮）</title>
    <desc>Created with Sketch.</desc>
    <g id="添加审核（高亮）" stroke="none" stroke-width="1" fill="none" fill-rule="evenodd">
        <rect id="矩形" x="0" y="0" width="16" height="16"></rect>
        <g id="审核" transform="translate(0.500000, 0.000000)" fill="#53B4B3" fill-rule="nonzero">
            <path d="M14.5,9.05252547 L14.5,2.33156944 L13.8108437,2.32213604 C13.7911485,2.32213604 12.2454357,2.29381914 10.6406722,1.67079726 C8.99650104,1.03835867 7.93318896,0.302052495 7.92335009,0.29263579 C7.92335009,0.29263579 7.63783127,-7.10542736e-15 7.5,-7.10542736e-15 C7.37202502,-7.10542736e-15 7.08647137,0.29263579 7.08647137,0.29263579 C7.07666732,0.302052495 6.01335524,1.02892527 4.36920147,1.67079726 C2.7644206,2.29380244 1.2187252,2.32213604 1.19901263,2.32213604 L0.5,2.33156944 L0.5,9.05252547 C0.5,12.4318703 5.04851895,16 7.49016113,16 C9.95146364,16 14.5,12.4318703 14.5,9.05252547 L14.5,9.05252547 Z M7.5,14.6424971 C5.75397152,14.6424971 1.5,11.6613656 1.5,9.04815324 L1.5,3.61418274 C2.24074559,3.53871 3.44707757,3.35946433 4.70636005,2.9066279 C5.98677407,2.44438031 6.97089734,1.9349268 7.5,1.64249705 C8.02912138,1.94437133 9.00263208,2.44438031 10.2936587,2.9066279 C11.5529037,3.35946433 12.7592544,3.53871 13.5,3.61418274 L13.5,9.04815324 C13.5,11.6613656 9.23547207,14.6424971 7.5,14.6424971 L7.5,14.6424971 Z M11.0653731,6.39055324 L10.2060304,6.39055324 L10.2060304,5.53157946 L4.69339166,5.53157946 L4.69339166,6.43777034 L3.83404896,6.43777034 L3.83404896,4.71035598 L6.95149474,4.71035598 C6.88749356,4.54043788 6.80520403,4.37051979 6.7320991,4.21946849 L7.6645629,4.0590005 C7.7285479,4.24780209 7.80170134,4.46490389 7.86568635,4.71035598 L11.0562694,4.71035598 L11.0562694,6.39056994 L11.0653731,6.39056994 L11.0653731,6.39055324 Z M5.45217264,10.4967541 L5.45217264,10.9498913 L4.59282994,10.9498913 L4.59282994,6.57935483 L7.06117639,6.57935483 L7.06117639,5.87139895 L7.93879127,5.87139895 L7.93879127,6.57935483 L10.4345945,6.57935483 L10.4345945,10.9215243 L9.57523565,10.9215243 L9.57523565,10.4967541 L7.93880744,10.4967541 L7.93880744,12.2053351 L7.06119256,12.2053351 L7.06119256,10.4967541 L5.45217264,10.4967541 Z M5.45217264,7.41004511 L5.45217264,8.15576799 L7.06117639,8.15576799 L7.06117639,7.41004511 L5.45217264,7.41004511 Z M5.45217264,9.67553065 L7.06117639,9.67553065 L7.06117639,8.94869127 L5.45217264,8.94869127 L5.45217264,9.67553065 Z M9.57525182,7.41004511 L7.93880744,7.41004511 L7.93880744,8.15576799 L9.57525182,8.15576799 L9.57525182,7.41004511 Z M9.57525182,9.67553065 L9.57525182,8.94869127 L7.93880744,8.94869127 L7.93880744,9.67553065 L9.57525182,9.67553065 Z" id="形状"></path>
        </g>
    </g>
</svg>