<?xml version="1.0" encoding="UTF-8"?>
<svg width="14px" height="14px" viewBox="0 0 14 14" version="1.1" xmlns="http://www.w3.org/2000/svg" xmlns:xlink="http://www.w3.org/1999/xlink">
    <!-- Generator: Sketch 54.1 (76490) - https://sketchapp.com -->
    <title>删除</title>
    <desc>Created with Sketch.</desc>
    <g id="删除" stroke="none" stroke-width="1" fill="none" fill-rule="evenodd">
        <g>
            <g id="关-闭" transform="translate(2.000000, 2.000000)" fill="#BBBBBB" fill-rule="nonzero">
                <path d="M5.95996331,5.00199993 L9.67682136,8.71585805 L9.67682135,8.71585804 C9.92531967,8.9772043 9.92531967,9.38747613 9.67682137,9.6488224 L9.67682138,9.64882238 C9.41527356,9.89681603 9.00540484,9.89681603 8.74385702,9.64882242 L5.02699897,5.9349643 L1.15414689,9.80781634 L1.15414691,9.80781632 C0.88468533,10.0640612 0.461645237,10.0640612 0.192183653,9.80781636 L0.192183683,9.8078164 C-0.0640612178,9.53835482 -0.0640612178,9.11531473 0.192183624,8.84585315 L4.06503571,4.9730011 L0.347177704,1.25714306 L0.347177666,1.25714302 C0.0993121328,0.995929565 0.0993121328,0.586392086 0.347177742,0.325178628 L0.34717768,0.325178687 C0.608725503,0.0771850362 1.01859422,0.0771850362 1.28014205,0.325178566 L4.99800005,4.04003664 L8.84585309,0.192183647 L8.84585305,0.192183682 C9.11531464,-0.0640612157 9.53835473,-0.0640612157 9.80781631,0.192183612 L9.80781633,0.192183627 C10.0640612,0.461645207 10.0640612,0.884685296 9.8078163,1.15414688 L5.95996326,5.00199987 L5.95996331,5.00199993 Z" id="路径"></path>
            </g>
            <rect id="矩形" x="0" y="0" width="14" height="14"></rect>
        </g>
    </g>
</svg>