<?xml version="1.0" encoding="UTF-8"?>
<svg width="24px" height="24px" viewBox="0 0 24 24" version="1.1" xmlns="http://www.w3.org/2000/svg" xmlns:xlink="http://www.w3.org/1999/xlink">
    <!-- Generator: Sketch 54.1 (76490) - https://sketchapp.com -->
    <title>icon-筛选</title>
    <desc>Created with Sketch.</desc>
    <g id="icon-筛选" stroke="none" stroke-width="1" fill="none" fill-rule="evenodd">
        <g id="icon-列表筛选" transform="translate(4.000000, 5.000000)">
            <path d="M1.01555809,0 L13.9602363,1.88737914e-15 C14.2363786,8.55597818e-16 14.4602363,0.223857625 14.4602363,0.5 C14.4602363,0.613465086 14.4216439,0.723556084 14.3507993,0.812186628 L10.0196912,6.23064702 C9.94884661,6.31927757 9.91025425,6.42936857 9.91025425,6.54283365 L9.91025425,14.1757983 C9.91025425,14.4519406 9.68639662,14.6757983 9.41025425,14.6757983 C9.32983249,14.6757983 9.25059736,14.6563993 9.17927148,14.6192472 L5.21836014,12.5560959 C5.05303677,12.4699826 4.94934291,12.2990533 4.94934291,12.1126469 L4.94934291,6.60291923 C4.94934291,6.49263023 4.91287782,6.38543577 4.84562479,6.2980247 L0.619276214,0.80489453 C0.450887614,0.586034093 0.491803123,0.272106723 0.710663559,0.103718124 C0.798074625,0.0364650966 0.905269087,3.53326668e-16 1.01555809,3.33066907e-16 Z" id="矩形" stroke="#BBBBBB" stroke-width="1.5"></path>
            <rect id="矩形" fill="#BBBBBB" x="11" y="7" width="4" height="2" rx="0.75"></rect>
            <rect id="矩形复制-5" fill="#BBBBBB" x="11" y="11" width="4" height="2" rx="0.75"></rect>
        </g>
        <rect id="矩形" x="0" y="0" width="24" height="24"></rect>
    </g>
</svg>