<?xml version="1.0" encoding="UTF-8"?>
<svg width="24px" height="24px" viewBox="0 0 24 24" version="1.1" xmlns="http://www.w3.org/2000/svg" xmlns:xlink="http://www.w3.org/1999/xlink">
    <!-- Generator: Sketch 54.1 (76490) - https://sketchapp.com -->
    <title>筛选箭头</title>
    <desc>Created with Sketch.</desc>
    <g id="筛选箭头" stroke="none" stroke-width="1" fill="none" fill-rule="evenodd">
        <g transform="translate(12.000000, 12.000000) rotate(-270.000000) translate(-12.000000, -12.000000) ">
            <g id="箭头" transform="translate(10.000000, 7.000000)" fill="#BBBBBB" fill-rule="nonzero" stroke="#BBBBBB">
                <path d="M0.464980474,9.9999898 L0.464980457,9.9999898 C0.208215701,10.0000308 3.72058597e-05,9.77056377 4.8726681e-09,9.48746225 C-1.78462867e-05,9.35141899 0.049013634,9.22094718 0.136294678,9.12478601 L3.87736766,4.9999711 L0.136294678,0.875156183 L0.136294679,0.875156183 C-0.045284225,0.674951756 -0.045284225,0.350356769 0.136294683,0.150153319 C0.317873586,-0.0500511071 0.612270683,-0.0500511071 0.793848701,0.150153324 L4.86379612,4.63757709 L4.86379612,4.6375771 C5.04537503,4.83774051 5.04540514,5.16230229 4.86386335,5.36250574 C4.86384094,5.36253045 4.86381853,5.36255516 4.86379612,5.36257987 L0.793848698,9.84979855 L0.79384871,9.84979854 C0.706730198,9.94613638 0.5883664,10.0001958 0.464981355,9.99999947" id="路径"></path>
            </g>
            <rect id="矩形" x="-2.27373675e-13" y="0" width="24" height="24"></rect>
        </g>
    </g>
</svg>