<?xml version="1.0" encoding="UTF-8"?>
<svg width="22px" height="22px" viewBox="0 0 22 22" version="1.1" xmlns="http://www.w3.org/2000/svg" xmlns:xlink="http://www.w3.org/1999/xlink">
    <!-- Generator: Sketch 54.1 (76490) - https://sketchapp.com -->
    <title>消息</title>
    <desc>Created with Sketch.</desc>
    <g id="消息" stroke="none" stroke-width="1" fill="none" fill-rule="evenodd">
        <g transform="translate(2.000000, 0.000000)" fill="#999999" fill-rule="nonzero" id="形状">
            <path d="M17.6765462,16.6263545 C16.9751401,16.1555131 16.443827,15.4757441 16.0958284,14.6063141 C15.8193528,13.9139011 15.7213847,13.2299175 15.7213847,12.8542071 L15.7213847,9.72811321 L15.7424209,9.72811321 C15.7424209,6.7989038 13.8810202,4.30501339 11.2785427,3.36874722 L11.2785427,2.26389551 L11.2785427,2.2639552 C11.2772505,1.01419266 10.2662677,0.00135824964 9.01871632,0 L9.01871619,1.42520518e-10 C7.77116481,0.00132749572 6.76016347,1.01412886 6.75882816,2.26389346 L6.75882816,3.35549812 C4.13586087,4.28092299 2.25583585,6.7844405 2.25583585,9.72811733 L2.27867508,9.72811733 L2.27867508,12.8542112 C2.27867508,13.2299216 2.18070675,13.9139052 1.90423135,14.6063183 C1.55683471,15.4757483 1.02491968,16.1549163 0.323513562,16.6263586 L0.323513606,16.6263586 C-0.0114154116,16.8514349 -0.10079035,17.3058908 0.123888417,17.6414135 C0.259511076,17.8439446 0.486963576,17.9654528 0.730414039,17.9654239 L5.30849149,17.9654239 L5.30849137,17.9654233 C5.65599279,19.7270958 7.19725955,20.9975922 8.98982015,21 L8.9898203,21 C10.7823809,20.9975877 12.3236415,19.7270958 12.6711491,17.9654233 L17.2702627,17.9654233 L17.2702627,17.9654233 C17.6735715,17.9651364 18.0002854,17.6373772 17.9999998,17.2333535 C17.9998271,16.9896856 17.8785579,16.7621006 17.6765626,16.6263559 L17.6765462,16.6263545 Z M8.2186949,2.26389345 C8.2186949,1.821954 8.57751147,1.46310239 9.01806915,1.46310239 C9.45922669,1.46310239 9.8174434,1.821954 9.8174434,2.26389345 L9.81744345,3.02253762 L9.81744345,3.02253762 C9.28654325,2.95822347 8.7499259,2.95680884 8.21869495,3.01832291 L8.21869495,2.26389344 L8.2186949,2.26389345 Z M8.98982029,19.4971591 L8.98982026,19.4971591 C8.02511697,19.4960729 7.16795079,18.8803739 6.85736127,17.9654197 L11.1222999,17.9654197 L11.1222999,17.9654197 C10.811548,18.8802585 9.95447636,19.4958872 8.98984086,19.497159 L8.98982029,19.4971591 Z M2.51787786,16.5023229 C2.81360037,16.0953035 3.06363079,15.6413209 3.26016897,15.1500091 C3.70493388,14.037331 3.7391916,13.1113032 3.7391916,12.8542174 L3.7391916,9.53846246 L3.73919155,9.53846382 C3.84863076,6.62822875 6.29237383,4.35789389 9.19745992,4.4675211 C11.9656877,4.57198922 14.1793537,6.80790871 14.2608688,9.58180434 L14.2608688,12.8542187 C14.2608688,13.1113148 14.2957286,14.0373427 14.7404934,15.1500105 C14.9370313,15.6413223 15.18646,16.0953049 15.48277,16.5023229 L2.51787786,16.5023229 L2.51787786,16.5023229 Z"></path>
        </g>
        <rect id="矩形" x="0" y="0" width="22" height="22"></rect>
    </g>
</svg>