<?xml version="1.0" encoding="UTF-8"?>
<svg width="66px" height="34px" viewBox="0 0 66 34" version="1.1" xmlns="http://www.w3.org/2000/svg" xmlns:xlink="http://www.w3.org/1999/xlink">
    <!-- Generator: Sketch 54.1 (76490) - https://sketchapp.com -->
    <title>灵犀云平台</title>
    <desc>Created with Sketch.</desc>
    <g id="灵犀云平台" stroke="none" stroke-width="1" fill="none" fill-rule="evenodd">
        <rect id="矩形" x="26" y="11" width="12" height="12"></rect>
        <g id="编组-2" transform="translate(13.000000, 4.000000)">
            <path d="M31.6667759,5.51479553 C36.4395644,6.58328292 40,10.7601688 40,15.75 C40,21.5489899 35.1912066,26.25 29.2592593,26.25 C29.2582999,26.25 29.2573406,26.2499999 29.2563813,26.2499996 C19.0583868,26.25 15.3369003,26.25 8.51456168,26.25 C8.47293794,26.2489585 8.43176122,26.2477052 8.39102844,26.2462416 C8.31035702,26.2487414 8.22939144,26.25 8.14814815,26.25 C3.64805019,26.25 0,22.388456 0,17.625 C0,13.2675134 3.05273157,9.66475735 7.01787198,9.08231214 C7.90971582,6.4177216 10.4003355,4.5 13.3333333,4.5 C13.7967551,4.5 14.249133,4.54787569 14.6859056,4.63900861 C16.3192478,1.86861258 19.40803,0 22.9494768,0 C26.852522,0 30.2057452,2.26968203 31.6667759,5.51479553 Z" id="形状结合" fill="#53B4B3"></path>
            <g id="灵犀logo复制" transform="translate(5.185185, 8.250000)">
                <polygon id="路径-2" fill="#FFFFFF" points="0 4.72560976 0.454287709 7.46084627 4.0363717 12.347561 4.0363717 8.27101005 2.9431547 7.91680141"></polygon>
                <polygon id="路径-3" fill="#FFFFFF" points="6.07756238 14.3292683 4.50932918 13.1185586 4.50932918 8.22816578 15.8349967 0 13.0513535 6.79195877 15.2844919 11.1563793 12.0003474 10.1092299 9.62282487 10.9451585"></polygon>
                <polygon id="路径-4" fill="#FFFFFF" points="16.2215132 0 13.5063207 6.6890704 18.4212659 16.6620022 17.9303973 18.75 22.5059849 18.75 22.5059849 17.3505277 19.7862991 12.5426384 25.4518323 8.53658537 25.9259259 2.34027596 21.5020088 4.11585366"></polygon>
                <polygon id="路径-5" fill="#FFFFFF" points="16.6621076 18.597561 13.3077815 18.4414551 13.4405857 16.9831158 12.7300954 15.7682766 15.9724411 12.5146938 17.2510102 15.1394057 16.3925367 16.2035373 16.9217121 17.2599655"></polygon>
                <path d="M7.45126375,8.53094454 C7.62145857,7.97575119 7.81513899,7.61775619 8.03230502,7.45695955 C8.24947105,7.2961629 8.67156009,7.24279047 9.29857215,7.29684226 C9.23286819,7.78769729 9.04723107,8.14625179 8.74166078,8.37250576 C8.4360905,8.59875973 8.00595816,8.65157266 7.45126375,8.53094454 Z" id="路径-6" fill="#53B4B3"></path>
                <polygon id="路径-7" fill="#FFFFFF" points="4.65735196 7.4695122 6.67553781 6.11439818 4.79669981 5.0304878"></polygon>
                <polygon id="路径-8" fill="#FFFFFF" points="8.74986428 5.33536585 8.48256958 5.02532981 7.76225327 4.55856269 8.15928528 3.35365854 9.29585796 3.66402088 9.29585796 4.4589335 9.46994899 4.82484988"></polygon>
            </g>
        </g>
    </g>
</svg>