<?xml version="1.0" encoding="UTF-8"?>
<svg width="152px" height="40px" viewBox="0 0 152 40" version="1.1" xmlns="http://www.w3.org/2000/svg" xmlns:xlink="http://www.w3.org/1999/xlink">
    <!-- Generator: Sketch 54.1 (76490) - https://sketchapp.com -->
    <title>灵犀logo复制</title>
    <desc>Created with Sketch.</desc>
    <g id="灵犀logo复制" stroke="none" stroke-width="1" fill="none" fill-rule="evenodd">
        <g id="灵犀logo" transform="translate(2.153846, 1.230769)">
            <polygon id="路径-2" fill="#53B4B3" points="0 9.53846154 0.900388255 15.0594312 8 24.9230769 8 16.6947157 5.83326794 15.9797592"></polygon>
            <polygon id="路径-3" fill="#53B4B3" points="12.0455951 28.9230769 8.93739134 26.4793059 8.93739134 16.6082362 31.3846154 0 25.8674957 13.7093075 30.293527 22.5187226 23.7844247 20.4050916 19.0722274 22.0923814"></polygon>
            <polygon id="路径-4" fill="#53B4B3" points="32.1506826 0 26.7692308 13.5016313 36.5105442 33.6316106 35.5376534 37.8461538 44.6063674 37.8461538 44.6063674 35.0213729 39.2160099 25.3168331 50.4449722 17.2307692 51.3846154 4.72375701 42.6165089 8.30769231"></polygon>
            <polygon id="路径-5" fill="#53B4B3" points="33.023931 37.5384615 26.3757305 37.2233678 26.6389454 34.2797661 25.2307692 31.8276598 31.6570272 25.260428 34.1911231 30.5583081 32.4896475 32.7062168 33.5384615 34.8385766"></polygon>
            <path d="M14.768241,17.2193834 C15.1055634,16.098747 15.4894337,15.3761479 15.919852,15.051586 C16.3502703,14.7270242 17.1868415,14.619294 18.4295656,14.7283954 C18.2993418,15.7191674 17.9314131,16.4428959 17.3257796,16.8995809 C16.720146,17.3562658 15.8676331,17.4628667 14.768241,17.2193834 Z" id="路径-6" fill="#FFFFFF"></path>
            <polygon id="路径-7" fill="#53B4B3" points="9.23076923 15.0769231 13.2307692 12.3416776 9.50695359 10.1538462"></polygon>
            <polygon id="路径-8" fill="#53B4B3" points="17.3420387 10.7692308 16.8122665 10.1434349 15.3846154 9.20128346 16.1715241 6.76923077 18.4241862 7.39568521 18.4241862 9.00018576 18.7692308 9.73877391"></polygon>
        </g>
        <rect id="矩形" x="0" y="0" width="55.3846154" height="40"></rect>
        <g id="编组" transform="translate(61.846154, 6.153846)" fill-rule="nonzero">
            <path d="M2.15785525,3.14487609 L12.6844361,3.14487609 L12.6844361,1.73757919 L1.65122837,1.73757919 L1.65122837,0.142642701 L14.4670122,0.142642701 L14.4670122,7.64822618 L1.35100503,7.64822618 L1.35100503,6.03452573 L12.6844361,6.03452573 L12.6844361,4.66475675 L2.15785525,4.66475675 L2.15785525,3.14487609 Z M3.43380444,8.73653578 L4.97244905,9.50585809 C4.33447446,10.894391 3.60268007,12.0765204 2.75830193,13.0710102 L1.36976898,12.0765204 C2.15785525,11.1383225 2.85212172,10.0312489 3.43380444,8.73653578 Z M9.10051997,8.09856119 C9.10051997,8.86788349 9.04422809,9.56214997 8.9504083,10.2001246 C10.00119,12.714495 12.6656721,14.4032513 16.9250907,15.2476294 L16.1932964,16.8988578 C12.0652254,15.9606599 9.41950726,14.4220153 8.25614183,12.2453961 C7.07401243,14.3469594 4.55964196,15.904368 0.731794389,16.8988578 L0,15.2476294 C3.92166737,14.3469594 6.2671622,12.7895509 7.03648451,10.6129317 C7.2241241,10.012485 7.31794389,9.16810683 7.33670785,8.09856119 L9.10051997,8.09856119 Z M13.5851061,8.64271599 L15.1425147,9.39327434 C14.4670122,10.7255154 13.6976898,11.8701169 12.7970198,12.8458427 L11.370959,11.832589 C12.2341011,10.931919 12.9658955,9.88113726 13.5851061,8.64271599 Z M25.165672,11.6449494 C24.8279208,12.0952844 24.4714055,12.4705636 24.0961264,12.7895509 L22.9327609,11.7762971 C23.814667,11.0820306 24.4714055,10.2001246 24.9029766,9.11181496 L24.0961264,9.26192663 L23.6833193,7.89215764 C25.2970197,7.64822618 26.7606085,7.3667668 28.0365577,7.06654346 L28.0365577,8.34249265 C27.1734156,8.58642411 26.2352177,8.83035558 25.184436,9.05552308 L26.3290375,9.48709413 C26.2164537,9.73102559 26.1226339,9.97495706 26.0288141,10.2001246 L28.9372277,10.2001246 L28.9372277,9.14934287 L30.7010398,9.14934287 L30.7010398,10.2001246 L35.7860726,10.2001246 L35.7860726,11.6449494 L30.7010398,11.6449494 L30.7010398,13.0147184 L36.7805625,13.0147184 L36.7805625,14.534599 L30.7010398,14.534599 L30.7010398,16.9551497 L28.9372277,16.9551497 L28.9372277,14.534599 L22.9515249,14.534599 L22.9515249,13.0147184 L28.9372277,13.0147184 L28.9372277,11.6449494 L25.165672,11.6449494 Z M34.247428,1.66252336 L23.1204005,1.66252336 L23.1204005,2.82588879 L34.247428,2.82588879 L34.247428,1.66252336 Z M23.1204005,4.30824153 L23.1204005,6.05328969 C23.1016366,10.1063048 22.3698422,13.5964011 20.9250174,16.5235786 L19.5927763,15.3039213 C20.7749057,12.9208986 21.3753524,9.84360935 21.3941163,6.05328969 L21.3941163,0.142642701 L35.9924762,0.142642701 L35.9924762,4.30824153 L23.1204005,4.30824153 Z M28.9372277,4.6835207 L30.6635119,4.6835207 L30.6635119,8.68024391 L28.9372277,8.68024391 L28.9372277,4.6835207 Z M24.4338776,4.70228466 C25.6910629,4.90868821 26.9107202,5.20891155 28.0740856,5.62171864 L27.5674587,6.86013991 C26.3665654,6.44733282 25.1093801,6.10958157 23.833431,5.88441406 L24.4338776,4.70228466 Z M32.0520449,7.12283534 C33.4030499,7.34800284 34.716527,7.6857541 35.9737122,8.1360891 L35.4483214,9.48709413 C34.1723722,8.98046725 32.8401311,8.58642411 31.4515982,8.30496473 L32.0520449,7.12283534 Z M31.9019332,6.822612 L31.4515982,5.5466628 C32.8588951,5.30273134 34.2099001,4.98374404 35.5233772,4.60846487 L35.9174204,5.90317802 C34.697763,6.24092928 33.365522,6.55991657 31.9019332,6.822612 Z" id="灵犀工业" fill="#666666"></path>
            <path d="M0,22.1538462 L0.605418873,22.1538462 L0.605418873,27.1415643 L3.69230769,27.1415643 L3.69230769,27.6923077 L0,27.6923077 L0,22.1538462 Z M5.23076923,22.1538462 L5.84615385,22.1538462 L5.84615385,27.6923077 L5.23076923,27.6923077 L5.23076923,22.1538462 Z M7.69230769,22.1538462 L8.3826087,22.1538462 L11.6254181,26.6606335 L11.6494983,26.6606335 L11.6494983,22.1538462 L12.3076923,22.1538462 L12.3076923,27.6923077 L11.6334448,27.6923077 L8.37458194,23.1389787 L8.35050167,23.1389787 L8.35050167,27.6923077 L7.69230769,27.6923077 L7.69230769,22.1538462 Z M16.4150491,22.1538462 C17.0975318,22.1538462 17.6419842,22.3193033 18.0484064,22.6659755 C18.4318236,22.989011 18.6695423,23.4538669 18.7692308,24.0684221 L18.1404266,24.0684221 C18.0560748,23.6429608 17.8720345,23.3199254 17.5883058,23.0914369 C17.2892404,22.8471905 16.8981548,22.7290068 16.4150491,22.7290068 C15.8169183,22.7290068 15.3491493,22.9417375 14.9964055,23.3750778 C14.6436616,23.8005391 14.4749581,24.3756998 14.4749581,25.1005598 C14.4749581,25.809662 14.6436616,26.3690649 14.9810688,26.7787684 C15.3414809,27.2121086 15.878265,27.4327182 16.591421,27.4327182 C16.8904865,27.4327182 17.1742152,27.3854447 17.4502756,27.3066556 C17.7186676,27.2278665 17.9487179,27.1175617 18.1404266,26.9914991 L18.1404266,25.5575368 L16.4227175,25.5575368 L16.4227175,24.9981339 L18.7615624,24.9981339 L18.7615624,27.2987767 C18.5008387,27.5193863 18.1787683,27.6848435 17.8030194,27.8109061 C17.4042655,27.9369687 16.9825066,28 16.5300743,28 C15.6635514,28 14.9887371,27.7163591 14.5132998,27.1490773 C14.0685358,26.6211901 13.8461538,25.9357247 13.8461538,25.1005598 C13.8461538,24.265395 14.0608675,23.5799295 14.5056314,23.0362845 C14.9734004,22.445366 15.609873,22.1538462 16.4150491,22.1538462 Z M20.1491841,22.1538462 L20.9422157,22.1538462 L22.4576126,24.310278 L23.9808612,22.1538462 L24.7738928,22.1538462 L22.8423506,24.8144796 L24.9230769,27.6923077 L24.1300454,27.6923077 L22.4576126,25.3186813 L20.7930315,27.6923077 L20,27.6923077 L22.0650227,24.8144796 L20.1491841,22.1538462 Z M26.1538462,22.1538462 L26.7692308,22.1538462 L26.7692308,27.6923077 L26.1538462,27.6923077 L26.1538462,22.1538462 Z M32,22.1538462 L32.6153846,22.1538462 L32.6153846,27.6923077 L32,27.6923077 L32,22.1538462 Z M34.1538462,22.1538462 L34.8441472,22.1538462 L38.0869565,26.6606335 L38.1110368,26.6606335 L38.1110368,22.1538462 L38.7692308,22.1538462 L38.7692308,27.6923077 L38.0949833,27.6923077 L34.8361204,23.1389787 L34.8120401,23.1389787 L34.8120401,27.6923077 L34.1538462,27.6923077 L34.1538462,22.1538462 Z M40.6153846,22.1538462 L42.6112266,22.1538462 C43.4922037,22.1538462 44.1548857,22.4020685 44.6070686,22.9140271 C45.0202703,23.3794441 45.2307692,24.0542986 45.2307692,24.9230769 C45.2307692,25.7763413 45.0046778,26.4511959 44.5602911,26.9321267 C44.0925156,27.4363284 43.4220374,27.6923077 42.5488565,27.6923077 L40.6153846,27.6923077 L40.6153846,22.1538462 Z M41.2307692,22.7692308 L41.2307692,27.0769231 L42.4299803,27.0769231 C43.1637081,27.0769231 43.7159763,26.8886498 44.086785,26.5196342 C44.433925,26.1581495 44.6153846,25.6234535 44.6153846,24.9230769 C44.6153846,24.2001076 44.4497041,23.6654115 44.1262327,23.3189887 C43.7790927,22.9499731 43.2426036,22.7692308 42.5009862,22.7692308 L41.2307692,22.7692308 Z M46.7692308,22.4615385 L47.3889339,22.4615385 L47.3889339,25.816568 C47.3889339,26.3491124 47.5022942,26.7523246 47.7441296,27.0262046 C47.9935223,27.3076923 48.3865047,27.4522401 48.9230769,27.4522401 C49.4520918,27.4522401 49.8450742,27.3076923 50.1020243,27.0262046 C50.3363023,26.7523246 50.45722,26.3491124 50.45722,25.816568 L50.45722,22.4615385 L51.0769231,22.4615385 L51.0769231,25.8089603 C51.0769231,26.5164835 50.8955466,27.0566357 50.5403509,27.4294167 C50.1700405,27.8098056 49.6334683,28 48.9230769,28 C48.2126856,28 47.6761134,27.8098056 47.3133603,27.4370245 C46.9506073,27.0566357 46.7692308,26.5164835 46.7692308,25.8089603 L46.7692308,22.4615385 Z M54.7388949,22.1538462 C55.3456121,22.1538462 55.8309859,22.2956666 56.1798483,22.5871864 C56.5438787,22.8865851 56.7486457,23.3356832 56.8017335,23.9266017 L56.1874323,23.9266017 C56.1191766,23.5168982 55.9674973,23.2174995 55.7323944,23.0205266 C55.4897075,22.8156749 55.148429,22.7211279 54.708559,22.7211279 C54.3066089,22.7211279 53.9956663,22.7841592 53.7681473,22.9259797 C53.5102925,23.083558 53.3813651,23.3199254 53.3813651,23.6429608 C53.3813651,23.9266017 53.5330444,24.1550902 53.843987,24.3284263 C53.9804984,24.4072154 54.3141928,24.5253991 54.8374865,24.6829774 C55.5503792,24.903587 56.020585,25.084802 56.248104,25.2266224 C56.695558,25.5102633 56.9230769,25.904209 56.9230769,26.4163384 C56.9230769,26.904831 56.7334778,27.2987767 56.3542795,27.5824176 C55.9750813,27.8581796 55.4669556,28 54.8223185,28 C54.1852654,28 53.6847237,27.8581796 53.3206934,27.5745387 C52.8959913,27.2357454 52.6608884,26.723616 52.6153846,26.0302716 L53.2296858,26.0302716 C53.2827736,26.5187643 53.4496208,26.8811943 53.7226436,27.1096828 C53.9729144,27.3145345 54.3369447,27.4248393 54.8223185,27.4248393 C55.2621885,27.4248393 55.6262189,27.3381713 55.8992416,27.1648352 C56.1722644,26.9914991 56.3087757,26.7551317 56.3087757,26.4557329 C56.3087757,26.1011818 56.1267606,25.8254199 55.7703142,25.628447 C55.6186349,25.5339001 55.2318527,25.3999585 54.6251354,25.2187435 C53.9729144,25.0138918 53.5557963,24.8563135 53.3813651,24.7617665 C52.964247,24.5096413 52.75948,24.1472113 52.75948,23.6744765 C52.75948,23.1859838 52.9566631,22.7999171 53.3586132,22.532034 C53.7150596,22.2799088 54.1776815,22.1538462 54.7388949,22.1538462 Z M58.1538462,22.1538462 L62.7692308,22.1538462 L62.7692308,22.7045895 L60.7810651,22.7045895 L60.7810651,27.6923077 L60.1420118,27.6923077 L60.1420118,22.7045895 L58.1538462,22.7045895 L58.1538462,22.1538462 Z M64,22.1538462 L66.3154786,22.1538462 C66.8492415,22.1538462 67.2702376,22.2779573 67.5784669,22.5339367 C67.894214,22.7976729 68.0596053,23.1855204 68.0596053,23.697479 C68.0596053,24.0077569 67.9769097,24.2792502 67.8115183,24.5197156 C67.6310914,24.7679379 67.3905222,24.9230769 67.0822929,25.0006464 L67.0822929,25.0161603 C67.5935025,25.1325145 67.8791784,25.4660633 67.9393207,26.0245637 L68.0220164,26.8778281 C68.0520875,27.2191338 68.1498188,27.490627 68.3076923,27.6923077 L67.6386092,27.6923077 C67.5183246,27.5061409 67.4431467,27.2656755 67.4205934,26.9553975 L67.3529333,26.2184874 C67.3228621,25.8926955 67.2100953,25.6522301 67.0146328,25.512605 C66.8342059,25.37298 66.5786012,25.3109244 66.2403007,25.3109244 L64.6164586,25.3109244 L64.6164586,27.6923077 L64,27.6923077 L64,22.1538462 Z M64.6153846,22.7692308 L64.6153846,24.9230769 L66.2104615,24.9230769 C66.5944615,24.9230769 66.8972308,24.8174165 67.104,24.6223512 C67.2886154,24.4354136 67.3846154,24.1753266 67.3846154,23.8339623 C67.3846154,23.4763425 67.2886154,23.2081277 67.1113846,23.0374456 C66.9193846,22.8586357 66.6166154,22.7692308 66.2104615,22.7692308 L64.6153846,22.7692308 Z M69.8461538,22.1538462 L70.4615385,22.1538462 L70.4615385,27.6923077 L69.8461538,27.6923077 L69.8461538,22.1538462 Z M73.9295165,22.1538462 L74.6858682,22.1538462 L76.9230769,27.6923077 L76.2144948,27.6923077 L75.6094134,26.1409179 L72.9980096,26.1409179 L72.3929282,27.6923077 L71.6923077,27.6923077 L73.9295165,22.1538462 Z M73.2307692,25.8461538 L75.3846154,25.8461538 L74.3311037,23.0769231 L74.2998885,23.0769231 L73.2307692,25.8461538 Z M78.1538462,22.1538462 L78.759265,22.1538462 L78.759265,27.1415643 L81.8461538,27.1415643 L81.8461538,27.6923077 L78.1538462,27.6923077 L78.1538462,22.1538462 Z" id="LINGXIINDUSTRIAL" fill="#6B6B6B"></path>
            <path d="M40.0366154,0.884923077 L46.5147692,0.884923077 C47.8550769,0.884923077 48.9313846,1.20984615 49.7233846,1.85969231 C50.4950769,2.50953846 50.8809231,3.40307692 50.8809231,4.54030769 C50.8809231,5.35261538 50.6575385,6.06338462 50.2310769,6.65230769 C49.7843077,7.18030769 49.1953846,7.56615385 48.4643077,7.80984615 C49.4187692,7.97230769 50.1498462,8.37846154 50.6778462,8.98769231 C51.2058462,9.59692308 51.4901538,10.3686154 51.4901538,11.3433846 C51.4901538,12.7649231 50.9824615,13.8209231 49.9873846,14.5113846 C49.1344615,15.08 47.9566154,15.3846154 46.4741538,15.3846154 L40.0366154,15.3846154 L40.0366154,0.884923077 Z M41.7018462,2.28615385 L41.7018462,7.22092308 L46.1086154,7.22092308 C47.124,7.22092308 47.8956923,6.99753846 48.4236923,6.59138462 C48.9516923,6.16492308 49.236,5.53538462 49.236,4.70276923 C49.236,3.89046154 48.972,3.28123077 48.444,2.87507692 C47.916,2.46892308 47.1443077,2.28615385 46.1289231,2.28615385 L41.7018462,2.28615385 Z M41.7018462,8.60184615 L41.7018462,13.9833846 L46.332,13.9833846 C47.3473846,13.9833846 48.1393846,13.7803077 48.7486154,13.4147692 C49.4593846,12.968 49.8249231,12.2572308 49.8249231,11.3230769 C49.8249231,10.3889231 49.5,9.69846154 48.8907692,9.25169231 C48.3018462,8.80492308 47.4489231,8.60184615 46.332,8.60184615 L41.7018462,8.60184615 Z M53.7849231,0.884923077 L59.7147692,0.884923077 C63.0452308,0.884923077 64.7104615,2.30646154 64.7104615,5.14953846 C64.7104615,8.01292308 63.0249231,9.45476923 59.6944615,9.45476923 L55.4501538,9.45476923 L55.4501538,15.3846154 L53.7849231,15.3846154 L53.7849231,0.884923077 Z M55.4501538,2.32676923 L55.4501538,8.01292308 L59.6132308,8.01292308 C60.7910769,8.01292308 61.644,7.76923077 62.2126154,7.30215385 C62.7609231,6.83507692 63.0452308,6.12430769 63.0452308,5.14953846 C63.0452308,4.17476923 62.7609231,3.464 62.1923077,3.03753846 C61.6236923,2.55015385 60.7707692,2.32676923 59.6132308,2.32676923 L55.4501538,2.32676923 Z M66.8224615,0.884923077 L68.8938462,0.884923077 L74.2956923,13.2523077 L74.3566154,13.2523077 L79.7381538,0.884923077 L81.8095385,0.884923077 L81.8095385,15.3846154 L80.1443077,15.3846154 L80.1443077,3.84984615 L80.0833846,3.84984615 L75.0673846,15.3846154 L73.5646154,15.3846154 L68.5486154,3.84984615 L68.4876923,3.84984615 L68.4876923,15.3846154 L66.8224615,15.3846154 L66.8224615,0.884923077 Z" id="BPM" fill="#6B6B6B"></path>
        </g>
    </g>
</svg>