<?xml version="1.0" encoding="UTF-8"?>
<svg width="130px" height="50px" viewBox="0 0 130 50" version="1.1" xmlns="http://www.w3.org/2000/svg" xmlns:xlink="http://www.w3.org/1999/xlink">
    <!-- Generator: Sketch 54.1 (76490) - https://sketchapp.com -->
    <title>LOGO</title>
    <desc>Created with Sketch.</desc>
    <defs>
        <path d="M63.2613808,24.0222247 C62.4341164,24.6717452 61.328247,25 59.9390571,25 C59.8815101,25 59.8241907,24.9994499 59.7670985,24.9983499 C59.7059245,24.9994501 59.6442753,25 59.5821512,25 C58.355158,25 57.2174583,24.7906004 56.1704053,24.3711605 L56,24.3028977 L56,20.7439127 L56.397884,21.0042207 C57.4622694,21.7005742 58.4962177,22.0460793 59.5023831,22.0460793 C60.7064255,22.0460793 61.2347831,21.7421313 61.2347831,21.180384 C61.2347831,20.8025319 60.7717143,20.4192812 59.773694,20.0875827 C58.3666282,19.6175318 57.3912671,19.0894375 56.8426715,18.4880577 C56.2799252,17.8711656 56,17.0404969 56,16.0126036 C56,14.756019 56.4801221,13.7567411 57.4277339,13.042712 C58.3529495,12.3455586 59.5550435,12 61.0279484,12 C62.0651825,12 63.0658632,12.1652563 64.0290546,12.495796 L64.211259,12.5583233 L64.211259,15.9798304 L63.8165637,15.7297939 C62.9996949,15.2123136 62.1017125,14.9539207 61.1176876,14.9539207 C60.6489793,14.9539207 60.2816559,15.0415152 60.0134954,15.2102277 C59.7771427,15.3589285 59.674447,15.5292658 59.674447,15.7445652 C59.674447,16.1343059 60.0558869,16.4946529 60.8913755,16.7962512 C61.9017843,17.1584054 62.6641603,17.4892177 63.1819878,17.7915884 C63.7245397,18.1083962 64.1419029,18.5298574 64.4292439,19.0539319 C64.7163826,19.5776373 64.859375,20.1809814 64.859375,20.8587379 C64.859375,22.1728073 64.3623144,23.2085953 63.3801954,23.937034 C63.3411045,23.9660278 63.3014995,23.9944246 63.2613808,24.0222247 Z M68.6253603,24.9959586 C68.5642437,24.9986535 68.502418,25 68.4398803,25 C67.4403537,25 66.6537316,24.6859333 66.0653144,24.0606926 C65.4804706,23.4392487 65.1875,22.5922908 65.1875,21.4993742 C65.1875,21.4395315 65.1883274,21.3803682 65.1899837,21.3218834 C65.1883279,21.2645665 65.1875,21.2066777 65.1875,21.1482194 C65.1875,18.7240256 66.5249823,17.2919894 69.11491,16.9022679 L71.8565841,16.4967317 C71.7866757,15.4443448 71.2453589,14.9539207 70.1561276,14.9539207 C68.9185214,14.9539207 67.7534483,15.3650032 66.6549023,16.1911646 L66.2530653,16.493366 L66.2530653,13.1243343 L66.3843297,13.0437151 C66.8987024,12.7278007 67.5760525,12.4758526 68.4177265,12.2846134 C69.2515569,12.0951563 69.9673508,12 70.5667124,12 C73.7326004,12 75.359375,13.7879929 75.359375,17.2670233 L75.359375,24.7105185 L71.8448393,24.7105185 L71.8448393,23.5224505 C71.0894434,24.5038186 70.0776539,25 68.8266149,25 C68.7587366,25 68.6916506,24.9986531 68.6253603,24.9959586 Z M69.9251666,19.1841716 C68.7647429,19.3613196 68.140625,20.0158285 68.140625,21.1123536 C68.140625,21.6219273 68.2958842,22.046252 68.6029678,22.3651715 C68.9050448,22.6788916 69.3056872,22.8333333 69.7936626,22.8333333 C70.4547106,22.8333333 71.0084783,22.5571052 71.4387766,22.0104449 C71.8646234,21.4694399 72.078125,20.7952218 72.078125,20.0017495 L72.078125,18.8611111 L69.9251666,19.1841716 Z M83.3304625,15.7155774 C83.0731746,15.4449964 82.7447104,15.2737217 82.3461007,15.2064718 C82.3123151,15.2046898 82.2779035,15.2038018 82.2428645,15.2038018 C81.7432727,15.2038018 81.3549517,15.4228928 81.0553316,15.8741986 C80.7432272,16.344309 80.5844149,16.9773277 80.5844149,17.7810581 L80.5844149,24.6388889 L77,24.6388889 L77,12.2878501 L80.5844149,12.2878501 L80.5844149,13.6136296 C80.9052436,13.2012269 81.2846442,12.8609902 81.7217041,12.5940351 C82.369184,12.1985561 83.0531997,12 83.7701263,12 C85.1932653,12 86.2316873,12.654519 86.852993,13.9426111 C87.7009673,12.6521403 88.8791476,12 90.3659881,12 C92.8147313,12 94.0625,13.7217531 94.0625,17.03478 L94.0625,24.6388889 L90.4876305,24.6388889 L90.4876305,17.6318025 C90.4876305,15.9654251 89.9909592,15.2038018 88.9723617,15.2038018 C88.5071867,15.2038018 88.1256896,15.4332344 87.8088114,15.9113329 C87.4793843,16.4083649 87.313912,17.017926 87.313912,17.7490748 L87.313912,24.6388889 L83.7390426,24.6388889 L83.7390426,17.5465136 C83.7390426,16.7018278 83.60428,16.0983135 83.3304625,15.7155774 Z M105.18323,23.539702 C104.263876,24.5125425 103.060931,25 101.562976,25 C101.484302,25 101.406454,24.9986616 101.32943,24.9959851 C101.243147,24.9986618 101.156035,25 101.068095,25 C99.2368511,25 97.7694887,24.4222637 96.6809487,23.263598 C95.5908941,22.1033199 95.046875,20.5272863 95.046875,18.5536077 C95.046875,16.5289987 95.6078696,14.92164 96.7320248,13.7503951 C97.8531007,12.5823585 99.3555857,12 101.22519,12 C103.036969,12 104.489731,12.574317 105.568432,13.7259769 C106.648189,14.878765 107.1875,16.4260772 107.1875,18.3498985 C107.1875,20.3653853 106.636028,21.9849579 105.531224,23.1913806 C105.419208,23.3137002 105.303204,23.4298064 105.18323,23.539702 Z M98.328125,18.6911392 C98.328125,21.1690293 99.2349183,22.4722222 101.00278,22.4722222 C102.708796,22.4722222 103.578125,21.1343967 103.578125,18.5958862 C103.578125,16.1679489 102.699203,14.8888889 100.984724,14.8888889 C100.151278,14.8888889 99.4885655,15.2311153 99.0174889,15.9126027 C98.5552338,16.5813285 98.328125,17.5103291 98.328125,18.6911392 Z M113.417727,15.2651162 C113.343598,15.2886618 113.271183,15.3167538 113.200518,15.3493711 C112.975082,15.4591298 112.773687,15.6314229 112.593679,15.8678291 C112.247203,16.3228585 112.07303,16.9067136 112.07303,17.6318025 L112.07303,24.6388889 L108.5,24.6388889 L108.5,12.2878501 L112.07303,12.2878501 L112.07303,13.6175803 C112.861325,12.543015 113.925681,12 115.248623,12 C117.73419,12 119,13.7574231 119,17.1413912 L119,24.6388889 L115.446,24.6388889 L115.446,17.7810581 C115.446,16.0147968 114.924745,15.2038018 113.859423,15.2038018 C113.70358,15.2038018 113.556518,15.224139 113.417727,15.2651162 Z" id="path-1"></path>
    </defs>
    <g id="LOGO" stroke="none" stroke-width="1" fill="none" fill-rule="evenodd">
        <g id="编组">
            <mask id="mask-2" fill="white">
                <use xlink:href="#path-1"></use>
            </mask>
            <use id="samon" fill="#53B4B3" fill-rule="nonzero" xlink:href="#path-1"></use>
            <text id="Industrial-Cloud" font-family="MicrosoftYaHeiUI-Bold, Microsoft YaHei UI" font-size="12.5038033" font-weight="bold" letter-spacing="-0.600024642" fill="#53B4B3">
                <tspan x="28" y="39">Industrial Clou</tspan>
                <tspan x="111.184653" y="39">d</tspan>
            </text>
            <path d="M20.3965356,37 C10.9832873,37 6.57653951,35.688699 7.03198112,30.0822445 C7.33560887,26.3446081 10.652684,23.4383687 16.9832065,21.3635261 C19.5308829,13.787842 24.2804043,10 31.2317706,10 C38.1831369,10 42.7617546,13.1290168 44.9676234,19.3870504 C49.6558745,21.1871126 52,23.365115 52,25.9210578" id="路径-3" stroke="#53B4B3" stroke-width="3.934413" stroke-linecap="round" stroke-linejoin="round"></path>
            <rect id="矩形" x="0" y="0" width="130" height="50"></rect>
        </g>
    </g>
</svg>