<?xml version="1.0" encoding="UTF-8"?>
<svg width="12px" height="12px" viewBox="0 0 12 12" version="1.1" xmlns="http://www.w3.org/2000/svg" xmlns:xlink="http://www.w3.org/1999/xlink">
    <!-- Generator: Sketch 54.1 (76490) - https://sketchapp.com -->
    <title>留言4</title>
    <desc>Created with Sketch.</desc>
    <g id="留言4" stroke="none" stroke-width="1" fill="none" fill-rule="evenodd">
        <path d="M2,1.5 C1.17157288,1.5 0.5,2.17157288 0.5,3 L0.5,7.72322302 C0.5,8.55165014 1.17157288,9.22322302 2,9.22322302 L4.34268252,9.22322302 L5.682227,10.6528241 C5.87082075,10.8540968 6.18678181,10.8646311 6.38836283,10.6763668 L7.94429401,9.22322302 L10,9.22322302 C10.8284271,9.22322302 11.5,8.55165014 11.5,7.72322302 L11.5,3 C11.5,2.17157288 10.8284271,1.5 10,1.5 L2,1.5 Z" id="矩形" stroke="#979797"></path>
        <g id="编组" transform="translate(3.500000, 4.500000)"></g>
        <g id="编组-2" transform="translate(2.250000, 4.750000)" fill="#979797">
            <path d="M-4.55703832e-14,0.725228609 L-4.55703832e-14,0.725228577 C-1.81044869e-08,1.12576112 0.335760504,1.45045712 0.749941316,1.45045712 C1.16412213,1.45045714 1.49988263,1.12576112 1.49988263,0.725228577 L1.49988263,0.725228546 C1.49988261,0.324696004 1.16412213,7.10542736e-15 0.749941316,7.10542736e-15 C0.335760504,1.75078555e-08 -4.61852778e-14,0.324696004 -4.61852778e-14,0.725228546 L-4.55703832e-14,0.725228609 Z" id="路径" fill-rule="nonzero"></path>
            <path d="M5.99988101,0.725228609 L5.99988101,0.725228592 C5.99988099,1.12576113 6.33569344,1.45045714 6.74993915,1.45045714 C7.16418487,1.45045716 7.4999973,1.12576113 7.4999973,0.725228592 C7.4999973,0.725228582 7.4999973,0.725228572 7.4999973,0.725228562 L7.4999973,0.725228602 C7.49999733,0.324696059 7.16418487,5.58879228e-08 6.74993915,5.58879228e-08 C6.33569344,2.56484995e-08 5.99988101,0.324696059 5.99988101,0.725228602 C5.99988101,0.725228612 5.99988101,0.725228622 5.99988101,0.725228632 L5.99988101,0.725228609 Z" id="路径" fill-rule="nonzero"></path>
            <path d="M2.99987668,0.725228609 L2.99987668,0.725228577 C2.99987666,1.12576112 3.33568911,1.45045712 3.74993483,1.45045712 C4.16418054,1.45045714 4.49999297,1.12576112 4.49999297,0.725228577 L4.49999297,0.725228546 C4.49999295,0.324696004 4.16418054,7.10542736e-15 3.74993483,7.10542736e-15 C3.33568911,1.75078555e-08 2.99987668,0.324696004 2.99987668,0.725228546 L2.99987668,0.725228609 Z" id="路径"></path>
        </g>
    </g>
</svg>