<?xml version="1.0" encoding="UTF-8"?>
<svg width="30px" height="30px" viewBox="0 0 30 30" version="1.1" xmlns="http://www.w3.org/2000/svg" xmlns:xlink="http://www.w3.org/1999/xlink">
    <!-- Generator: Sketch 54.1 (76490) - https://sketchapp.com -->
    <title>更多</title>
    <desc>Created with Sketch.</desc>
    <g id="更多" stroke="none" stroke-width="1" fill="none" fill-rule="evenodd">
        <g transform="translate(6.000000, 13.000000)" fill="#666666" fill-rule="nonzero" id="形状">
            <path d="M3.8,2 C3.8,3.06666667 2.96875,4 1.9,4 C0.83125,4 0,3.06666667 0,2 C0,0.933333333 0.83125,0 1.9,0 C2.96875,0 3.8,0.933333333 3.8,2 Z M11.4,2 C11.4,3.06666667 10.56875,4 9.5,4 C8.43125,4 7.6,3.06666667 7.6,2 C7.6,0.933333333 8.43125,0 9.5,0 C10.56875,0 11.4,0.933333333 11.4,2 Z M19,2 C19,3.06666667 18.16875,4 17.1,4 C16.03125,4 15.2,3.06666667 15.2,2 C15.2,0.933333333 16.03125,0 17.1,0 C18.16875,0 19,0.933333333 19,2 Z"></path>
        </g>
        <rect id="矩形" x="0" y="0" width="30" height="30"></rect>
    </g>
</svg>