<?xml version="1.0" encoding="UTF-8"?>
<svg width="12px" height="12px" viewBox="0 0 12 12" version="1.1" xmlns="http://www.w3.org/2000/svg" xmlns:xlink="http://www.w3.org/1999/xlink">
    <!-- Generator: Sketch 54.1 (76490) - https://sketchapp.com -->
    <title>关联资料4</title>
    <desc>Created with Sketch.</desc>
    <g id="关联资料4" stroke="none" stroke-width="1" fill="none" fill-rule="evenodd" stroke-linecap="round" stroke-linejoin="round">
        <g id="编组-6" transform="translate(6.363961, 6.363961) rotate(-45.000000) translate(-6.363961, -6.363961) translate(-0.136039, 3.863961)" stroke="#999999">
            <path d="M7.23223305,2.46015511 L7.23223305,2.46015511 L7.23223305,2.46015511 C7.23223305,3.56472461 6.33680255,4.46015511 5.23223305,4.46015511 L2.23223305,4.46015511 C1.12766355,4.46015511 0.232233047,3.56472461 0.232233047,2.46015511 L0.232233047,2.46015511 C0.232233047,1.35558561 1.12766355,0.460155108 2.23223305,0.460155108 L2.23223305,0.460155108 L4.72476098,0.460155108 L5.23223305,0.460155108" id="路径"></path>
            <path d="M12.8890873,2.46015511 L12.8890873,2.46015511 L12.8890873,2.46015511 C12.8890873,3.56472461 11.9936568,4.46015511 10.8890873,4.46015511 L7.8890873,4.46015511 C6.7845178,4.46015511 5.8890873,3.56472461 5.8890873,2.46015511 L5.8890873,2.46015511 C5.8890873,1.35558561 6.7845178,0.460155108 7.8890873,0.460155108 L7.8890873,0.460155108 L10.3816152,0.460155108 L10.8890873,0.460155108" id="路径复制" transform="translate(9.389087, 2.460155) scale(-1, -1) translate(-9.389087, -2.460155) "></path>
        </g>
    </g>
</svg>