<?xml version="1.0" encoding="UTF-8"?>
<svg width="18px" height="18px" viewBox="0 0 18 18" version="1.1" xmlns="http://www.w3.org/2000/svg" xmlns:xlink="http://www.w3.org/1999/xlink">
    <!-- Generator: Sketch 54.1 (76490) - https://sketchapp.com -->
    <title>关联</title>
    <desc>Created with Sketch.</desc>
    <g id="关联" stroke="none" stroke-width="1" fill="none" fill-rule="evenodd">
        <g id="编组-6" transform="translate(9.000000, 9.000000) rotate(-45.000000) translate(-9.000000, -9.000000) translate(-1.000000, 5.000000)" stroke="#999999" stroke-linecap="round" stroke-linejoin="round">
            <path d="M10.954775,4.31043769 C10.954775,6.2741168 9.55929892,7.86599325 7.83789191,7.86599325 L3.16256724,7.86599325 C1.44116022,7.86599325 0.0456841197,6.2741168 0.0456841197,4.31043769 C0.0456841197,2.34675858 1.44116022,0.754882138 3.16256724,0.754882138 L7.04702636,0.754882138 L7.83789191,0.754882138" id="路径"></path>
            <path d="M19.9543159,4.31043769 C19.9543159,6.2741168 18.5588398,7.86599325 16.8374328,7.86599325 L12.1621081,7.86599325 C10.4407011,7.86599325 9.04522497,6.2741168 9.04522497,4.31043769 C9.04522497,2.34675858 10.4407011,0.754882138 12.1621081,0.754882138 L16.0465672,0.754882138 L16.8374328,0.754882138" id="路径复制" transform="translate(14.499770, 4.310438) scale(-1, -1) translate(-14.499770, -4.310438) "></path>
        </g>
        <rect id="矩形" x="0" y="0" width="18" height="18"></rect>
    </g>
</svg>