<?xml version="1.0" encoding="UTF-8"?>
<svg width="40px" height="40px" viewBox="0 0 40 40" version="1.1" xmlns="http://www.w3.org/2000/svg" xmlns:xlink="http://www.w3.org/1999/xlink">
    <!-- Generator: Sketch 54.1 (76490) - https://sketchapp.com -->
    <title>发送（高亮）</title>
    <desc>Created with Sketch.</desc>
    <g id="发送（高亮）" stroke="none" stroke-width="1" fill="none" fill-rule="evenodd">
        <g id="发送">
            <circle id="椭圆形" fill="#53B4B3" cx="20" cy="20" r="20"></circle>
            <g transform="translate(7.000000, 9.000000)" fill="#FFFFFF" fill-rule="nonzero" id="形状">
                <path d="M22.9359955,0.417335374 L22.9359955,0.417335383 C22.81229,0.222611955 22.6167197,0.0854265052 22.3924165,0.0360335013 C21.9442529,-0.0774836411 21.3630867,0.0782385216 20.6922887,0.488646012 L0.718683343,11.1272326 C0.545200908,11.2072768 -0.0113892761,11.5056224 0.000177631317,12.0368258 C0.00885175305,12.3904754 0.257510615,12.6684461 0.766391012,12.8736502 L7.08115587,14.9737173 L8.02374447,15.3637513 L18.322824,5.15012914 L10.3223867,16.312641 L11.6220586,16.8496644 L17.9671702,18.9686518 C18.0596942,19.0123123 18.2591997,19.090901 18.5020751,19.090901 L18.502075,19.090901 C18.6726164,19.0915691 18.8407787,19.0506209 18.9921629,18.9715627 C19.4171949,18.7503505 19.6716351,18.2584414 19.7453651,17.5496884 L22.9909394,0.749159838 L22.9909394,0.749159769 C23.0133652,0.635508959 22.993832,0.517527068 22.9360031,0.41734043 L22.9359955,0.417335374 Z M10.9439535,20.9969761 L10.9439535,20.9969761 C10.7487953,21.0237028 10.5710101,20.870291 10.5468584,20.6543215 C10.5450039,20.6377371 10.5441045,20.6210389 10.5441658,20.604328 L10.5416672,17.5765114 L10.5416672,17.5765018 C10.5413416,17.3588856 10.7004913,17.1821792 10.8971388,17.1818187 C10.9263985,17.1817651 10.9555525,17.1857029 10.9839415,17.1935431 L13.1452877,17.7852801 L13.1452877,17.7852801 C13.3362806,17.837087 13.4531607,18.0504267 13.4063472,18.2617869 C13.3910409,18.3308922 13.3591116,18.3941219 13.3139489,18.4447634 L11.1550916,20.8822222 L11.1550916,20.8822222 C11.0986103,20.94602 11.0241054,20.9865133 10.9439531,20.996975 L10.9439535,20.9969761 Z"></path>
            </g>
        </g>
        <rect id="矩形" x="0" y="0" width="40" height="40"></rect>
    </g>
</svg>