<?xml version="1.0" encoding="UTF-8"?>
<svg width="15px" height="15px" viewBox="0 0 15 15" version="1.1" xmlns="http://www.w3.org/2000/svg" xmlns:xlink="http://www.w3.org/1999/xlink">
    <!-- Generator: Sketch 54.1 (76490) - https://sketchapp.com -->
    <title>icon-归档文件</title>
    <desc>Created with Sketch.</desc>
    <g id="icon-归档文件" stroke="none" stroke-width="1" fill="none" fill-rule="evenodd">
        <g id="编组-2" transform="translate(0.000000, 1.000000)">
            <path d="M1.23723219,7.66001167 L1.03781657,7.59820092 L1.25953423,7.59310556 L1.23723219,7.66001167 Z M1.2654252,7.59297017 L13.409846,7.31387517 C13.4813694,7.28160157 13.5512277,7.25438776 13.6200175,7.23176069 L11.7443357,1.60471529 C11.5741931,1.09428762 11.0965196,0.75 10.5584816,0.75 L4.44151844,0.75 C3.90348043,0.75 3.42580688,1.09428762 3.25566432,1.60471529 L1.26050289,7.59019959 C1.26214339,7.5911202 1.26378416,7.59204373 1.2654252,7.59297017 Z M13.8338174,7.8870291 C13.834535,7.89033205 13.8352941,7.89356494 13.8360817,7.89675264 C13.8338008,7.88752109 13.8309107,7.87671169 13.8273572,7.86416499 Z" id="路径" stroke="#BBBBBB" stroke-width="1.5"></path>
            <rect id="矩形复制" fill="#BBBBBB" x="5.5" y="2.73708773" width="4" height="1.5" rx="0.75"></rect>
            <rect id="矩形复制-12" fill="#BBBBBB" x="4.5" y="5" width="6" height="1.5" rx="0.75"></rect>
            <path d="M10.744764,7.75 L10.744764,9.05273881 C10.744764,9.57740932 10.3194345,10.0027388 9.79476395,10.0027388 L5.39452507,10.0027388 C4.86985456,10.0027388 4.44452507,9.57740932 4.44452507,9.05273881 L4.44452507,7.75 L2,7.75 C1.30964406,7.75 0.75,8.30964406 0.75,9 L0.75,12 C0.75,12.6903559 1.30964406,13.25 2,13.25 L13,13.25 C13.6903559,13.25 14.25,12.6903559 14.25,12 L14.25,9 C14.25,8.30964406 13.6903559,7.75 13,7.75 L10.744764,7.75 Z" id="矩形" stroke="#BBBBBB" stroke-width="1.5"></path>
        </g>
        <rect id="矩形" x="0" y="0" width="15" height="15"></rect>
    </g>
</svg>