<?xml version="1.0" encoding="UTF-8"?>
<svg width="15px" height="15px" viewBox="0 0 15 15" version="1.1" xmlns="http://www.w3.org/2000/svg" xmlns:xlink="http://www.w3.org/1999/xlink">
    <!-- Generator: Sketch 54.1 (76490) - https://sketchapp.com -->
    <title>icon-全部项目</title>
    <desc>Created with Sketch.</desc>
    <g id="icon-全部项目" stroke="none" stroke-width="1" fill="none" fill-rule="evenodd">
        <path d="M7.91977881,1.15429226 L13.8433681,3.58242349 C14.0988775,3.68715906 14.2211039,3.97919533 14.1163683,4.23470477 C14.0644669,4.36132175 13.9629391,4.4611338 13.8354559,4.51086979 L7.82166143,6.85707871 C7.58621259,6.94893621 7.32471502,6.94823568 7.08976172,6.85511799 L1.16203865,4.50581769 C0.905322794,4.40407497 0.77969224,4.11348688 0.881434955,3.85677103 C0.931851204,3.72956143 1.03219974,3.62857264 1.15908612,3.57734837 L7.16614977,1.15228551 C7.4080083,1.05464677 7.67844368,1.05536688 7.91977881,1.15429226 Z" id="矩形" stroke="#BBBBBB" stroke-width="1.5"></path>
        <path d="M14.1525182,8 L7.82166143,10.3462089 C7.58621259,10.4380664 7.32471502,10.4373659 7.08976172,10.3442482 L0.823287247,8" id="路径" stroke="#BBBBBB" stroke-width="1.5" stroke-linecap="round" stroke-linejoin="round"></path>
        <path d="M14.1525182,11.466516 L7.82166143,13.8127249 C7.58621259,13.9045824 7.32471502,13.9038819 7.08976172,13.8107642 L0.823287247,11.466516" id="路径复制" stroke="#BBBBBB" stroke-width="1.5" stroke-linecap="round" stroke-linejoin="round"></path>
    </g>
</svg>